<?xml version="1.0" standalone="no"?><!DOCTYPE svg PUBLIC "-//W3C//DTD SVG 1.1//EN" "http://www.w3.org/Graphics/SVG/1.1/DTD/svg11.dtd"><svg t="1593621864279" class="icon" viewBox="0 0 1024 1024" version="1.1" xmlns="http://www.w3.org/2000/svg" p-id="5516" xmlns:xlink="http://www.w3.org/1999/xlink" width="64" height="64"><defs><style type="text/css"></style></defs><path d="M648.533333 136.533333 386.844444 136.533333c-56.558933 0-102.4 45.841067-102.4 102.4l0 534.755556c0 56.558933 45.841067 102.4 102.4 102.4l261.688889 0c56.558933 0 102.4-45.841067 102.4-102.4L750.933333 238.933333C750.933333 182.3744 705.092267 136.533333 648.533333 136.533333zM517.688889 830.577778c-15.712711 0-28.444444-12.731733-28.444444-28.444444 0-15.712711 12.731733-28.444444 28.444444-28.444444s28.444444 12.731733 28.444444 28.444444C546.133333 817.846044 533.4016 830.577778 517.688889 830.577778zM694.044444 739.555556 341.333333 739.555556 341.333333 273.066667l352.711111 0L694.044444 739.555556z" p-id="5517" fill="#ffffff"></path></svg>